<svg xmlns="http://www.w3.org/2000/svg" version="1.1" xmlns:xlink="http://www.w3.org/1999/xlink" xmlns:svgjs="http://svgjs.dev/svgjs" width="1000" height="1000" viewBox="0 0 1000 1000"><rect width="1000" height="1000" fill="#000000"></rect><g transform="matrix(0.7,0,0,0.7,150,106.25)"><svg viewBox="0 0 320 360" data-background-color="#dedede" preserveAspectRatio="xMidYMid meet" height="1125" width="1000" xmlns="http://www.w3.org/2000/svg" xmlns:xlink="http://www.w3.org/1999/xlink"><defs></defs><g id="tight-bounds" transform="matrix(1,0,0,1,0,0)"><svg viewBox="0 0 320 360" height="360" width="320"><g><svg></svg></g><g><svg viewBox="0 0 320 360" height="360" width="320"><g><path d="M165.217 303.356c-1.404-1.755-2.809-0.702-2.808-1.755-8.426 2.106-24.223-3.511-30.894-2.809 1.404-2.106-2.106-1.755-2.106-3.159-1.404 2.106-2.809 0-4.915 0.702-2.106-5.266-10.532-1.404-11.585-8.075-4.915 0-6.67-2.809-11.586-5.617 0.351-0.351 0.702-0.351 1.054-0.702-2.457-0.351-2.457-1.755-4.564-1.755l0.702-1.405c-3.862-0.702-5.266-6.67-10.883-8.776-1.755-0.351-5.617-6.319-7.723-7.724-1.053-0.702-2.809-0.702-0.352-1.053-0.351-0.351-0.351-1.053 0-1.404-2.457-0.702-2.809-2.809-5.968-3.862-0.351-1.053 0.702-1.755 0-2.457-0.702-0.351-1.755 0.351-2.457 0-0.351 6.319 6.67 7.021 8.777 12.287-0.702-0.702-1.755-2.809-2.458-1.404-0.351 1.053 2.809 4.915 2.809 2.808-1.053 0.702-1.404-1.053-0.703-1.404 1.053 1.755 3.16 1.404 3.16 2.809-1.053 1.053-2.457-1.053-2.106 0.702 3.16 1.755 2.809 3.511 4.563 5.968-1.404-1.755-1.755 1.404-3.159 0-0.351-5.266-6.319-4.213-6.319-9.479-0.702-1.755-1.404-0.351-2.458-1.053 1.404-1.404-4.213-6.319-4.213-4.564-1.755-2.106-0.702-2.809-1.053-4.213-1.404-0.351-0.351 1.404-1.404 0.351 1.404-2.457-1.755-5.617-3.862-8.074l1.405-0.702c-2.457-1.404-2.809-4.213-4.564-7.373-2.106 3.16 4.213 10.181 3.159 11.585 0 0.351 2.457 3.16 3.16 4.564 2.809 4.915 4.915 10.883 8.777 13.692-0.702-0.351-0.351-2.457 0.702-1.404 0 1.053-0.702 2.106-0.702 3.159 2.106 2.106 3.862 3.862 5.968 5.968-4.564-2.809-9.128-5.617-12.288-9.83 1.755-0.351 3.511 2.809 4.915 2.458-3.511-2.809-2.457-3.862-3.861-7.372-1.404-1.053 0.351 1.404-1.054 1.755-4.564-4.213-8.075-6.67-10.181-10.532 0.351-0.351 0.702-0.702 0.703-1.404-0.351-0.351-0.351-0.351-0.703-0.702 2.106 2.106 2.809 3.862 5.266 4.212-1.053-1.053 0-1.404-1.404-2.457-0.702-1.404-1.755 0.702-2.457-0.351 0.702-1.053 0-2.457 0-3.511-0.702 0-1.404 0-1.756-1.053-0.702-0.351-1.053 0-1.404 0.702-0.351-0.351-0.351-1.053-0.702-1.404v-0.351c-0.351-0.351-0.702-1.053-1.053-1.405-2.809-7.372-4.564-17.202-8.426-23.521 1.053-4.213-0.702-12.638-1.755-14.745 1.053-1.755 0.351-9.83-0.351-11.234-1.755 0.702 0.351 4.564-1.404 5.617-1.755-7.723 1.053-16.5 0.351-23.521 0.702 0 1.404 0 1.404-0.351-1.053-1.053 0.702-3.16 0.351-5.617 1.404-3.16-3.16 4.564-3.16 7.723-0.351 0.702-1.755 0-1.404 1.756 0 2.457 0.702 7.372-0.702 10.883-0.702 0-0.702-0.702-1.404-0.351-0.351 1.755-0.702 3.862-1.053 5.617-0.351-0.702-0.702-1.755-0.703-2.107-1.755-8.777 0-18.958-0.702-26.33 1.404 0 1.404-2.106 2.458-2.808-0.351 2.809-1.053 6.319 0.702 7.021 1.404-13.692 4.213-28.787 10.532-43.532 4.564-10.883 11.234-21.766 19.308-30.543 0.702 1.053-0.351 3.511 0 4.564 7.021-7.372 11.585-16.149 19.309-21.064 0.351 1.755-3.16 3.16-3.16 4.564 3.16-3.16 4.213-2.106 7.724-3.159 1.053-1.404-1.404 0-1.756-1.405 2.106-1.404 3.511-3.16 4.915-4.212 0 0.351-0.351 0.351-0.351 0.702 3.862-1.053 4.213-3.16 7.022-3.862-0.351-0.351-1.053-0.702-2.107-0.351 0.702-0.351 1.755-1.053 2.809-1.404-0.351 0-0.351 0.351-0.702 0.351 2.106-1.053 0.351 0.351 0.351 1.053 0.351 0 0.702-0.351 0.702-0.351-2.106 1.404-3.511 2.106-4.213 4.564 1.053-0.702 1.404 0 2.809-1.054 1.404-0.702-0.351-1.755 0.702-2.457 1.053 0.702 2.457 0.351 3.51 0.351 0-0.702 0.351-1.404 1.054-1.755 0.351-0.702 0-1.053-0.352-1.053 0.351-0.351 0.702-0.351 1.405-0.703 0 0 0.351 0 0.351 0.351 5.968-2.809 12.638-5.266 18.957-7.372 3.862-0.351 8.777-0.351 10.883-2.808-0.702 0-1.404 0.351-1.755 0 0.351 0 1.053-0.351 1.404-0.351 0.702 0.702 1.755 0 0.702 1.404 0.351 0 0.351 0 0.703-0.351 0 0.351 0 0.351 0.351 0.702 0.351 0 0.702-0.351 1.053-1.053 0.351 0 0.702 0 1.053-0.351l-0.351 0.351c2.809-0.702 5.266-0.351 9.128-1.054 0-0.351 0-0.702 0-1.053 0.702 0 1.053-0.351 1.755-0.351v0.351c1.404-0.702 2.809 0.702 2.808 0 0.351 0 0.351 0 0.703 0 0 0.702-0.351 1.053-0.351 1.405 1.755 0 2.809 0 3.51-1.054-0.351-0.351-0.702-0.351-1.053-0.351 0.702 0 1.404-0.351 2.106-0.702 1.053 0.351 1.404 0.702 1.405 2.107 1.755-3.16 7.372 0.702 9.829 0 1.053 0 0.702-1.404 1.405-2.107 0.351 0 0.702 0 1.053 0 1.755 1.404 4.213 2.809 7.372 3.16-2.809-0.702 0.351-1.053 0.702-1.405-0.702 0-0.702-0.351-0.702-0.702 1.053 0 2.106 0.351 3.16 0.351 0 0.702 0.351 1.053 1.053 1.054 0.702 0 0.702-0.351 0.702-1.054 1.053 0 1.755 0 2.809 0.351-0.351 1.404 1.755 1.755 2.457 2.809-2.809-0.702-5.968-1.755-7.021 0 11.234 2.457 23.521 5.968 35.457 11.936 0 0 0 0 0 0.351h0.352c2.106 1.053 4.213 2.106 6.319 3.16 1.404 0.702 2.457 1.404 3.861 2.457 0 0.351 0 0.702 0.703 0.702h0.351c1.404 1.053 2.809 1.755 4.212 2.809 1.404 2.106 2.809 4.915 5.266 4.213 5.266 8.075 10.883 11.234 15.447 19.659 0.351-1.404 1.404 3.16 3.16 3.511-2.809-0.351 1.755 1.755-1.053 1.404 2.457 2.457 3.16 3.511 3.51 6.319-0.702-1.404-1.053-1.755-1.404-0.351-0.351 2.106 2.457-0.351 3.511 1.756-2.106 0-1.404 1.404-1.054 3.159 1.053-1.053 0.702-2.106 1.756-1.755 1.404 1.404-0.702 1.755-0.351 2.809 1.053-1.404 1.404-0.702 2.808 0-1.755 0.351 1.053 2.809-1.053 1.755 1.404 1.755 1.755 2.809 1.053 4.564-1.404-2.106-0.351-3.511-2.457-3.16 4.213 3.511 2.106 11.585 7.021 12.287-3.16 0.702 0 2.106-1.755 2.458 2.106 0.702 1.053 3.511 3.51 4.213-0.351 1.755-1.053 2.809-1.404 4.563 1.053 1.404 1.404 4.213 3.16 4.564-1.053 1.053-0.351 3.862-1.404 4.915 1.404-0.702 2.106-0.702 3.159 0.702-1.755 1.404-0.351 2.809-1.404 3.16 3.16 8.075-0.702 24.575 1.053 30.894-2.106-1.053-1.404 2.457-2.808 2.457 2.457 1.053 0.351 2.809 1.404 4.564-4.915 2.809 0 10.532-6.67 12.287 0.702 4.915-2.106 7.021-4.213 12.288-0.351-0.351-0.351-0.702-0.702-1.054-0.351 2.457-1.755 2.809-1.054 4.915l-1.404-0.702c0 3.862-5.968 5.968-7.372 11.936-0.351 1.755-5.617 6.319-7.022 8.777-0.702 1.053-0.351 2.809-1.053 0.351-0.351 0.351-1.053 0.351-1.404 0.351-0.351 2.457-2.457 3.16-3.16 6.319-0.702 0.351-1.755-0.702-2.457 0.351 0 0.702 0.702 1.755 0.351 2.458 6.319-0.351 6.319-7.723 11.234-10.181-0.351 1.053-2.457 2.106-1.053 2.808 1.053 0 4.213-3.511 2.457-3.159 1.053 0.702-1.053 1.404-1.404 1.053 1.755-1.404 1.053-3.16 2.458-3.511 1.053 0.702-1.053 2.457 1.053 2.107 1.404-3.16 3.16-3.511 5.266-5.266-1.404 1.404 1.755 1.755 0.351 3.159-5.266 1.053-3.511 7.021-8.777 7.724-1.404 1.053-0.351 1.404-0.702 2.457-1.755-1.053-5.617 4.915-4.213 4.564-1.755 1.755-2.809 1.053-4.212 1.404-0.351 1.404 1.404 0.351 0.702 1.405-2.457-1.053-5.617 2.457-7.724 4.915l-1.053-1.054c-1.053 2.809-3.862 3.16-7.021 5.266 3.511 1.755 9.479-5.617 11.234-4.564 0.351 0 3.16-2.809 4.213-3.861 4.564-3.511 10.181-6.319 12.287-10.181-0.351 0.702-2.457 0.702-1.404-0.351 1.053-0.351 2.106 0.351 3.159 0.351 5.617-7.723 12.638-14.043 17.905-23.17 0.351-0.351 0.702-1.053 1.053-1.756-0.702 2.106-1.755 3.862-2.458 5.968-5.617 3.862-7.723 15.096-14.393 16.851 0.351 3.862-3.16 4.915-4.915 9.479-1.053 1.404-1.755-1.053-2.809 0.702 1.053 4.915-8.777 4.564-8.425 9.128-0.702 0.351-1.755 0.702-2.458 1.404h-0.351c-0.351 0.351-0.351 0.351-0.702 0.702-1.755 1.053-3.16 2.106-4.564 3.16-4.915 2.809-11.585 4.915-16.851 7.723v-0.351c-1.404 0.702-3.16 0.351-2.809 1.756-1.053 0.702-2.106 1.404-3.159 2.106-0.351 0-0.351 0-0.702 0 0 0-0.351-0.351-0.702-0.351-0.702 0-0.702 0-1.054 0.351-4.564 0.351-10.532 2.457-12.287 3.862-1.755-1.053-9.83 0.702-11.234 1.404 0.702 1.053 2.809 0 4.564 0-1.053 0.351-2.106 0.702-2.458 1.404-0.351 0-0.351 0-0.702 0-0.351-1.053-1.404 0-1.755-0.351h0.351c-0.351-1.404-1.404-2.106-3.16-1.755 0 0.702 0 1.053-0.351 1.755 0.702 0 2.809-1.053 2.809 0-0.351 0-0.351 0.351 0 0.351-0.702 0.702-1.755 0.702-2.458 1.054-1.404 0-3.16 0-4.563 0-0.351-0.351-0.702-0.351-1.405-0.703-0.351 0.351-1.053 0.351-1.404 0.703-2.106 0-4.564 0.351-6.319 0.702 0-0.702 0-1.404-0.702-1.405-1.053 1.404-3.16-0.351-5.617 0.352-2.457-0.702 1.404 1.053 4.915 1.755-0.351 0.351-0.702 0.702-1.756 1.053M116.068 308.271c-4.915-4.564-15.096-6.67-16.851-10.181-2.809-0.351-7.021-5.617-10.532-6.319 1.755 0 0.351-1.053 0-1.755-0.702 0.702-1.404 1.053-2.106 1.053 0-2.809-2.809-4.564-5.266-6.319 1.755 1.053 3.16 1.755 5.266 2.106 0-0.702 0-1.404 0.702-1.404 2.457 2.457 5.266 4.915 8.425 7.372 4.213 3.862 25.979 13.692 29.841 15.447 0 0-0.702 1.404-0.351 1.404 1.755 1.053 3.16-1.053 3.511 1.404-5.617 0.702-7.723-3.16-12.639-2.808M277.909 226.824v0.351 0c-0.351 0 0-0.351 0-0.351M136.079 64.281c-0.351 0.351-0.702 0.351-0.702 0.351 0-0.351 0.351-0.351 0.702-0.351M129.409 66.036c0 0.351 0 0.351 0 0 0 0.351 0 0.351 0 0 0 0.351 0 0 0 0M106.238 73.408v0c0.351-0.351 0.351-0.351 0.703-0.351-0.351 0-0.702 0.351-0.703 0.351M162.409 61.823c-0.702 0-1.053 0-1.404-0.351 0.351 0 0.702 0 1.053 0h0.351c0 0 0 0 0 0.351M168.728 62.525c-0.351-0.351-1.404-0.702-2.457-0.702 0-0.351 0.351-0.702 0.351-0.702 0.351 0 0.702 0 1.053 0 0 0 0.351 0 0.351 0.351 0 0 0 0 0-0.351 0.351 0 0.351 0 0.702 0 0.351 0.702 0.702 1.053 0 1.404M180.313 63.579c-1.755 0.351-2.809-0.351-4.564-1.405 1.053 0 2.457 0.351 3.511 0.702 0.351 0 0.702 0.351 1.053 0.703M305.292 113.43c-0.702 0.351-1.053 0.351-1.755-1.053-5.617-11.936-15.798-29.138-30.543-43.532-14.394-14.745-33.702-26.681-51.255-33.001 1.053 0.351 2.457 1.053 1.755 1.756-15.447-5.968-30.192-9.479-44.234-10.883-37.915-5.968-77.585 2.106-108.128 21.766 0.351 0.702 0.351 1.053-0.702 1.755-11.234 7.021-27.032 19.309-39.671 35.458-12.638 16.149-22.468 36.511-26.681 54.766 0.351-1.053 0.702-2.809 1.405-2.107-9.128 36.16-6.67 67.053 5.968 93.735 0.702-0.702-1.755-4.213 0.351-3.862 1.404 3.862 3.16 8.075 5.266 11.936 2.457 5.617 5.266 12.989 9.128 14.745-9.83-19.309-16.5-41.426-17.203-61.085 1.404 2.809 1.053 8.777 3.16 11.234 0.702-13.34-2.457-31.245 2.106-43.883-1.053 6.67-1.755 15.798-1.053 24.925 0 6.67 3.16 25.277 5.266 27.032-0.351-0.351-0.351-2.106 0-2.106 1.053 2.106-1.404 3.16 0.351 3.511 0-0.702 0.351-0.702 0.702-0.703 3.511 7.723 8.075 19.66 11.585 25.628 4.213 7.723 9.83 14.745 16.149 21.064 0 0.351 0.351 0.351 0.352 0.702 0.702 1.755 3.16 3.862 3.861 5.266 0.351 0.702-0.351 1.755 0 2.458 5.266 9.83 12.989 19.66 22.468 27.383 5.968 7.021 15.447 14.394 27.032 20.713 11.234 5.968 24.223 10.883 36.16 13.691 8.426 2.106 18.606 2.457 24.926 3.862 8.426 1.755 23.17-0.702 30.542-2.107 44.234-6.67 88.117-36.862 110.235-80.393 22.819-43.883 22.117-97.596 2.457-138.671" fill="#374151" data-fill-palette-color="tertiary"></path></g><g transform="matrix(1,0,0,1,94.91298511874908,108)"><svg viewBox="0 0 130.17402976250185 144" height="144" width="130.17402976250185"><g><svg viewBox="0 0 160 176.99382927635958" height="144" width="130.17402976250185"><g transform="matrix(1,0,0,1,0,108.55300304214684)"><svg viewBox="0 0 160 68.44082623421272" height="68.44082623421272" width="160"><g><svg viewBox="0 0 160 68.44082623421272" height="68.44082623421272" width="160"><g><svg viewBox="0 0 160 43.011896059015086" height="43.011896059015086" width="160"><g transform="matrix(1,0,0,1,0,0)"><svg width="160" viewBox="4.050000190734863 -39.95000076293945 150.46083068847656 40.45000076293945" height="43.011896059015086" data-palette-color="#374151"><path d="M9.95-34.65L9.95-2.1Q9.95 0.3 7 0.3L7 0.3Q4.05 0.3 4.05-2.1L4.05-2.1 4.05-36.7Q4.05-37.85 4.7-38.78 5.35-39.7 7.2-39.7L7.2-39.7 24.2-39.7Q26-39.7 26.1-37.2L26.1-37.2Q26.2-34.65 24.2-34.65L24.2-34.65 9.95-34.65ZM22.75-20.65L22.75-20.65Q22.75-19.8 22.43-19.03 22.1-18.25 21.53-17.7 20.95-17.15 20.2-16.82 19.45-16.5 18.55-16.5L18.55-16.5Q16.85-16.5 15.65-17.7 14.45-18.9 14.45-20.65L14.45-20.65Q14.45-22.4 15.65-23.6 16.85-24.8 18.55-24.8L18.55-24.8Q19.45-24.8 20.2-24.48 20.95-24.15 21.53-23.58 22.1-23 22.43-22.25 22.75-21.5 22.75-20.65ZM55.15-0.6L45.7-16.45 41.85-16.45Q41-16.45 40.52-17.13 40.05-17.8 40.05-18.95L40.05-18.95Q40.05-21.5 42.15-21.5L42.15-21.5 48-21.5Q49.85-21.5 50.6-22.55 51.35-23.6 51.35-24.85L51.35-24.85 51.35-31.3Q51.35-32.55 50.6-33.6 49.85-34.65 48-34.65L48-34.65 37.45-34.65 37.45-2.05Q37.45 0.35 34.5 0.35L34.5 0.35Q31.55 0.35 31.55-2.05L31.55-2.05 31.55-36.7Q31.55-38.5 32.47-39.1 33.4-39.7 34.7-39.7L34.7-39.7 49.25-39.7Q50.55-39.7 51.95-39.15 53.35-38.6 54.65-37.75L54.65-37.75 54.6-37.75Q55.9-36.8 56.6-35.27 57.3-33.75 57.3-31.75L57.3-31.75 57.3-24.45Q57.3-20.4 54.6-18.4L54.6-18.4Q54.05-18 53.42-17.65 52.8-17.3 52.15-16.95L52.15-16.95 60.15-3.75Q60.3-3.5 60.45-3.1 60.6-2.7 60.6-2.45L60.6-2.45Q60.6-1.25 58.9-0.15L58.9-0.15 58.9-0.2Q57.75 0.5 56.95 0.5L56.95 0.5Q55.8 0.5 55.1-0.65L55.1-0.65 55.15-0.6ZM86.75 0.05L68.45 0.05Q66.59 0.05 65.95-0.9 65.3-1.85 65.3-3L65.3-3 65.3-36.7Q65.3-37.85 65.95-38.78 66.59-39.7 68.45-39.7L68.45-39.7 85.84-39.7Q87.7-39.7 87.8-37.2L87.8-37.2Q87.9-34.65 85.84-34.65L85.84-34.65 71.2-34.65 71.2-5 86.75-5Q88.59-5 88.65-2.55L88.65-2.55Q88.75 0.05 86.75 0.05L86.75 0.05ZM84-20.65L84-20.65Q84-18.9 82.77-17.7 81.55-16.5 79.8-16.5L79.8-16.5Q78.09-16.5 76.9-17.7 75.7-18.9 75.7-20.65L75.7-20.65Q75.7-22.4 76.9-23.6 78.09-24.8 79.8-24.8L79.8-24.8Q81.55-24.8 82.77-23.6 84-22.4 84-20.65ZM116.19-10.5L116.19-37.55Q116.19-39.95 119.14-39.95L119.14-39.95Q122.09-39.95 122.09-37.55L122.09-37.55 122.09-3.05Q122.09-1.3 120.24-0.5L120.24-0.5 120.29-0.5Q119.49-0.15 118.59 0.05 117.69 0.25 116.84 0.25L116.84 0.25Q116.19 0.25 115.49 0.13 114.79 0 114.17-0.28 113.54-0.55 113.02-1.03 112.49-1.5 112.19-2.2L112.19-2.2 101.34-29.25 99.99-29.1 99.99-2.1Q99.99 0.3 96.99 0.3L96.99 0.3Q94.04 0.3 94.04-2.1L94.04-2.1 94.04-36.55Q94.04-38.6 95.84-39.3L95.84-39.3Q97.49-39.95 99.34-39.95L99.34-39.95Q100.64-39.95 101.97-39.43 103.29-38.9 103.99-37.45L103.99-37.45 114.79-10.35 116.19-10.5ZM146.69-34.65L128.99-34.65Q127.24-34.65 127.14-37.2L127.14-37.2Q127.14-39.7 128.99-39.7L128.99-39.7 150.94-39.7Q152.59-39.7 153.49-39.18 154.39-38.65 154.49-37.75L154.49-37.75Q154.54-36.9 154.47-36.13 154.39-35.35 154.09-34.95L154.09-34.95 134.39-5 152.49-5Q154.34-5 154.34-2.55L154.34-2.55Q154.44 0.05 152.49 0.05L152.49 0.05 130.09 0.05Q126.79 0.05 126.54-1.95L126.54-1.95Q126.44-2.8 126.54-3.53 126.64-4.25 126.94-4.65L126.94-4.65Q127.84-6.05 128.81-7.55 129.79-9.05 130.99-10.85 132.19-12.65 133.67-14.9 135.14-17.15 137.04-20.03 138.94-22.9 141.31-26.5 143.69-30.1 146.69-34.65L146.69-34.65Z" opacity="1" transform="matrix(1,0,0,1,0,0)" fill="#ffffff" class="undefined-text-0" data-fill-palette-color="primary" id="text-0"></path></svg></g></svg></g><g transform="matrix(1,0,0,1,0,53.16597243304313)"><svg viewBox="0 0 160 15.274853801169591" height="15.274853801169591" width="160"><g transform="matrix(1,0,0,1,0,0)"><svg width="160" viewBox="2.450000047683716 -32.20000076293945 341.9700012207031 32.650001525878906" height="15.274853801169591" data-palette-color="#374151"><path d="M21.05-16.7Q23.9-15.7 25.18-14.1 26.45-12.5 26.45-9.95L26.45-9.95Q26.45-4.9 22.68-2.33 18.9 0.25 11.1 0.25L11.1 0.25Q6.65 0.25 2.5 0L2.5 0 2.45 0 4-9.6 6.45-32.15 17.25-32.2Q21.7-32.2 24.25-30.4 26.8-28.6 26.8-25.15L26.8-25.15Q26.8-22.3 25.33-20.1 23.85-17.9 21.05-16.7L21.05-16.7ZM15.6-18.4Q17.8-18.95 18.88-20.33 19.95-21.7 19.95-24L19.95-24Q19.95-25.85 18.8-26.65 17.65-27.45 14.85-27.45L14.85-27.45 12.35-27.45 11.1-18.55 15.6-18.4ZM12.7-4.5Q16.05-4.5 17.9-5.93 19.75-7.35 19.75-9.9L19.75-9.9Q19.75-11.6 18.78-12.55 17.8-13.5 15.8-13.9L15.8-13.9 10.4-13.8 9.9-10.2 9.35-4.7Q11.85-4.5 12.7-4.5L12.7-4.5ZM43.7-20.45L39.1-20.45 38.35-15.2 42.8-15.15 47.05-15.3 47.3-14.85 46.4-10.25 41.75-10.4 37.65-10.35 37.3-8.05 37-4.8 41.3-4.8 48-5 48.3-4.55 47.35 0 30.45 0 31.65-7.5 33.6-25.25 50.7-25.25 50.95-24.75 49.95-20.2 43.7-20.45ZM72.59-25.25L72.84-24.75 71.9-20.05 66.95-20.35 65.55-20.35 63.84-8.05 63.09 0 57 0 58.2-7.5 59.65-20.35 58.2-20.35 53.09-20.05 52.75-20.5 53.75-25.25 72.59-25.25ZM94.44-25.25L94.69-24.75 93.74-20.05 88.79-20.35 87.39-20.35 85.69-8.05 84.94 0 78.84 0 80.04-7.5 81.49-20.35 80.04-20.35 74.94-20.05 74.59-20.5 75.59-25.25 94.44-25.25ZM109.49-20.45L104.89-20.45 104.14-15.2 108.59-15.15 112.84-15.3 113.09-14.85 112.19-10.25 107.54-10.4 103.44-10.35 103.09-8.05 102.79-4.8 107.09-4.8 113.79-5 114.09-4.55 113.14 0 96.24 0 97.44-7.5 99.39-25.25 116.49-25.25 116.74-24.75 115.74-20.2 109.49-20.45ZM140.14-18.45Q140.14-15.75 138.61-13.55 137.09-11.35 134.39-9.95L134.39-9.95Q136.54-5.95 139.54-1.45L139.54-1.45 139.29-0.75Q136.24 0.2 133.29 0.4L133.29 0.4 132.49-0.2Q130.39-4.95 129.19-8.25L129.19-8.25 125.44-8.2 125.39-8.05 124.64 0 118.54 0 119.74-7.5 121.69-25.25 131.94-25.25Q135.74-25.25 137.94-23.45 140.14-21.65 140.14-18.45L140.14-18.45ZM127.24-20.65L126.09-12.9 129.89-12.7Q133.59-13.95 133.59-17.55L133.59-17.55Q133.59-19.15 132.74-19.93 131.89-20.7 130.04-20.8L130.04-20.8 127.24-20.65ZM174.58-32.15L174.88-31.65 173.88-26.75 168.03-27.05 166.13-27.05 163.78-10.2 162.78 0 156.18 0 157.78-9.6 159.68-27.05 157.73-27.05 151.68-26.75 151.33-27.25 152.43-32.15 174.58-32.15ZM187.18-25.6Q192.28-25.6 195.06-22.85 197.83-20.1 197.83-14.5L197.83-14.5Q197.83-10.15 196.18-6.75 194.53-3.35 191.38-1.45 188.23 0.45 183.88 0.45L183.88 0.45Q178.73 0.45 175.96-2.38 173.18-5.2 173.18-10.85L173.18-10.85Q173.18-15.2 174.83-18.53 176.48-21.85 179.63-23.73 182.78-25.6 187.18-25.6L187.18-25.6ZM186.38-20.65Q182.98-20.65 181.28-18.43 179.58-16.2 179.58-11L179.58-11Q179.58-7.3 180.71-5.83 181.83-4.35 184.58-4.35L184.58-4.35Q188.03-4.35 189.71-6.6 191.38-8.85 191.38-14L191.38-14Q191.38-17.7 190.28-19.18 189.18-20.65 186.38-20.65L186.38-20.65ZM216.13-25.55Q220.23-25.55 224.03-24.2L224.03-24.2 221.73-18.55 221.23-18.55Q219.28-19.7 217.88-20.15 216.48-20.6 214.73-20.6L214.73-20.6Q210.93-20.6 209.05-18.28 207.18-15.95 207.18-10.8L207.18-10.8Q207.18-7.35 208.38-5.88 209.58-4.4 212.78-4.4L212.78-4.4Q213.68-4.4 214.38-4.53 215.08-4.65 216.08-5.05L216.08-5.05 216.28-6.7 216.68-10.7 222.33-11.05 221.83-7.7 221.03-1.25Q216.03 0.4 212.18 0.4L212.18 0.4Q206.58 0.4 203.68-2.45 200.78-5.3 200.78-10.9L200.78-10.9Q200.78-17.7 204.8-21.63 208.83-25.55 216.13-25.55L216.13-25.55ZM240.18-20.45L235.58-20.45 234.83-15.2 239.28-15.15 243.53-15.3 243.78-14.85 242.88-10.25 238.23-10.4 234.13-10.35 233.78-8.05 233.48-4.8 237.78-4.8 244.48-5 244.78-4.55 243.83 0 226.93 0 228.13-7.5 230.08-25.25 247.18-25.25 247.43-24.75 246.43-20.2 240.18-20.45ZM269.07-25.25L269.32-24.75 268.37-20.05 263.42-20.35 262.02-20.35 260.32-8.05 259.57 0 253.47 0 254.67-7.5 256.12-20.35 254.67-20.35 249.57-20.05 249.22-20.5 250.22-25.25 269.07-25.25ZM290.22-25.25L296.42-25.25 293.97-8.05 293.22 0 287.12 0 288.32-7.5 288.57-10.05 278.02-10 277.72-8.05 277.02 0 270.92 0 272.12-7.5 274.02-25.25 280.22-25.25 278.77-15.15 284.07-15.1 289.12-15.15 290.22-25.25ZM313.77-20.45L309.17-20.45 308.42-15.2 312.87-15.15 317.12-15.3 317.37-14.85 316.47-10.25 311.82-10.4 307.72-10.35 307.37-8.05 307.07-4.8 311.37-4.8 318.07-5 318.37-4.55 317.42 0 300.52 0 301.72-7.5 303.67-25.25 320.77-25.25 321.02-24.75 320.02-20.2 313.77-20.45ZM344.42-18.45Q344.42-15.75 342.89-13.55 341.37-11.35 338.67-9.95L338.67-9.95Q340.82-5.95 343.82-1.45L343.82-1.45 343.57-0.75Q340.52 0.2 337.57 0.4L337.57 0.4 336.77-0.2Q334.67-4.95 333.47-8.25L333.47-8.25 329.72-8.2 329.67-8.05 328.92 0 322.82 0 324.02-7.5 325.97-25.25 336.22-25.25Q340.02-25.25 342.22-23.45 344.42-21.65 344.42-18.45L344.42-18.45ZM331.52-20.65L330.37-12.9 334.17-12.7Q337.87-13.95 337.87-17.55L337.87-17.55Q337.87-19.15 337.02-19.93 336.17-20.7 334.32-20.8L334.32-20.8 331.52-20.65Z" opacity="1" transform="matrix(1,0,0,1,0,0)" fill="#ffffff" class="undefined-text-1" data-fill-palette-color="secondary" id="text-1"></path></svg></g></svg></g></svg></g></svg></g><g transform="matrix(1,0,0,1,35.87757485295462,0)"><svg viewBox="0 0 88.24485029409075 88.24485029409075" height="88.24485029409075" width="88.24485029409075"><g><svg></svg></g><g id="icon-0"><svg viewBox="0 0 88.24485029409075 88.24485029409075" height="88.24485029409075" width="88.24485029409075"><g><path d="M0 44.122c0-24.368 19.754-44.122 44.122-44.122 24.368 0 44.122 19.754 44.123 44.122 0 24.368-19.754 44.122-44.123 44.123-24.368 0-44.122-19.754-44.122-44.123zM44.122 84.366c22.226 0 40.244-18.018 40.244-40.244 0-22.226-18.018-40.244-40.244-40.243-22.226 0-40.244 18.018-40.243 40.243 0 22.226 18.018 40.244 40.243 40.244z" data-fill-palette-color="accent" fill="#ffffff" stroke="transparent"></path><ellipse rx="43.681200895574925" ry="43.681200895574925" cx="44.12242514704538" cy="44.12242514704538" fill="#ffffff" stroke="transparent" stroke-width="0" fill-opacity="1" data-fill-palette-color="accent"></ellipse></g><g transform="matrix(1,0,0,1,22.000827214119628,32.3469150230147)"><svg viewBox="0 0 44.2431958658515 23.55102024806135" height="23.55102024806135" width="44.2431958658515"><g><svg xmlns="http://www.w3.org/2000/svg" xmlns:xlink="http://www.w3.org/1999/xlink" version="1.1" x="0" y="0" viewBox="3.0001471042633057 26.305999755859375 93.35567474365234 49.694000244140625" enable-background="new 0 0 100 100" xml:space="preserve" height="23.55102024806135" width="44.2431958658515" class="icon-x-0" data-fill-palette-color="quaternary" id="x-0"><circle cx="49.677" cy="35.638" r="9.3" fill="#dedede" data-fill-palette-color="quaternary"></circle><circle cx="77.467" cy="39.087" r="7.8" fill="#dedede" data-fill-palette-color="quaternary"></circle><g fill="#dedede" data-fill-palette-color="quaternary"><path d="M96.085 70.657l-6.016-14.561c-0.802 0.415-1.298 0.516-2.512 0.885-0.938 0.273-5.024 1.277-14.509 1.277-2.709 0-4.978-0.084-6.876-0.206v10.895c0 2.923 2.369 5.294 5.294 5.294h11.999c2.278 0 4.206-1.449 4.952-3.469l1.076 2.606c0.753 1.822 2.836 2.688 4.656 1.937C95.969 74.564 96.837 72.479 96.085 70.657z" fill="#dedede" data-fill-palette-color="quaternary"></path></g><circle cx="21.889" cy="39.087" r="7.8" fill="#dedede" data-fill-palette-color="quaternary"></circle><g fill="#dedede" data-fill-palette-color="quaternary"><path d="M3.271 70.657l6.015-14.561c0.802 0.415 1.297 0.516 2.512 0.885 0.938 0.273 5.025 1.277 14.509 1.277 2.709 0 4.978-0.084 6.876-0.206v10.895c0 2.923-2.37 5.294-5.294 5.294h-12c-2.278 0-4.206-1.449-4.951-3.469l-1.076 2.606c-0.753 1.822-2.836 2.688-4.657 1.937C3.387 74.564 2.519 72.479 3.271 70.657z" fill="#dedede" data-fill-palette-color="quaternary"></path></g><path d="M87.352 49c0 0-9.371 1.273-14.408 1.273-3.383 0-8.709-0.438-11.85-0.814C59.972 48.47 58.503 48 56.89 48H42.466c-1.614 0-3.083 0.47-4.205 1.459-3.141 0.377-8.467 0.882-11.849 0.882-5.037 0-14.408-1.307-14.408-1.307-1.853 0-3.356 1.485-3.356 3.337 0 1.854 0.955 2.632 3.767 3.469 0 0 3.181 1.149 13.84 1.149 4.326 0 7.745-0.214 9.745-0.463v13.472C36 73.514 38.951 76 42.466 76H56.89c3.514 0 6.11-2.486 6.11-6.001V56.527c3 0.249 5.598 0.459 9.922 0.459 10.658 0 13.954-1.154 13.954-1.154 2.812-0.837 3.8-1.622 3.8-3.477C90.676 50.503 89.204 49 87.352 49z" fill="#dedede" data-fill-palette-color="quaternary"></path></svg></g></svg></g></svg></g></svg></g><g></g></svg></g></svg></g></svg></g></svg><rect width="320" height="360" fill="none" stroke="none" visibility="hidden"></rect></g></svg></g></svg>